<svg aria-hidden="true" focusable="false" data-prefix="fae" class="svg-inline--fa fa-envisio-logo fa-w-14 env-a-font-size-25" role="img" xmlns="http://www.w3.org/2000/svg" viewBox="0 0 75 90"><path fill="currentColor" d="M14.39 78.88a5.18 5.18 0 0 1-5.83-2.02 48.33 48.33 0 0 1-6.19-12.62C-5.86 38.58 8.55 11.06 34.52 2.9A49.93 49.93 0 0 1 47.62.64a5.1 5.1 0 1 1 .39 10.2 38.65 38.65 0 0 0-33.4 21 38.54 38.54 0 0 0 2.49 39.32 5.04 5.04 0 0 1-2.71 7.71M49.54 88.86a36.73 36.73 0 0 1-28.3-25.2A36.27 36.27 0 0 1 35.03 23.3a5.2 5.2 0 0 1 7.17 1.16 5.07 5.07 0 0 1-1.18 7.12 26.22 26.22 0 0 0-9.95 29.09A26.73 26.73 0 0 0 67.91 76.8a5.2 5.2 0 0 1 6.87 2.45 5.08 5.08 0 0 1-2.45 6.79 37.15 37.15 0 0 1-22.79 2.82ZM49.83 58.18a5.01 5.01 0 0 1-5.04-5.08 5.5 5.5 0 0 1 5.24-5.42A13.38 13.38 0 0 0 62.75 34.5c.05-2.8-.87-5.51-2.6-7.7a5.32 5.32 0 0 1 .92-7.4 5.44 5.44 0 0 1 3.41-1.2 4.96 4.96 0 0 1 3.93 1.89 22.2 22.2 0 0 1 4.82 14.07 23.93 23.93 0 0 1-6.88 16.64 23.9 23.9 0 0 1-16.31 7.4h-.2"></path></svg>