<svg aria-hidden="true" focusable="false" data-prefix="fae" class="svg-inline--fa fa-expand-all fa-w-16 " role="img" xmlns="http://www.w3.org/2000/svg" viewBox="0 0 90 90"><path fill="currentColor" d="M20.636 58.241a2.306 2.306 0 0 1 1.642.68l22.258 22.262 22.258-22.262a2.322 2.322 0 0 1 3.284 0l.828.828a2.322 2.322 0 0 1 0 3.284l-24.728 24.73a2.322 2.322 0 0 1-3.284 0l-24.728-24.73a2.325 2.325 0 0 1 0-3.284l.828-.828a2.307 2.307 0 0 1 1.642-.68ZM68.437 31.734a2.306 2.306 0 0 1-1.642-.68L44.537 8.797l-22.258 22.26a2.322 2.322 0 0 1-3.284 0l-.828-.829a2.322 2.322 0 0 1 0-3.284l24.728-24.73a2.322 2.322 0 0 1 3.284 0l24.728 24.731a2.325 2.325 0 0 1 0 3.284l-.828.828a2.307 2.307 0 0 1-1.642.677Z"></path></svg>