<svg xmlns="http://www.w3.org/2000/svg" viewBox="0 0 8.96 10.6">
  <defs>
    <style>.cls-1{fill:#7c7a7a;}.cls-2{fill:#1280a8;}.cls-3{fill:#9bcb4c;}</style>
  </defs>
  <path class="cls-1" d="M4.28,12a.62.62,0,0,1-.7-.24,6,6,0,0,1-.73-1.5A5.82,5.82,0,0,1,6.67,3a5.94,5.94,0,0,1,1.56-.27.61.61,0,1,1,0,1.22A4.36,4.36,0,0,0,7,4.14,4.61,4.61,0,0,0,4,9.93a4.38,4.38,0,0,0,.58,1.19.6.6,0,0,1-.17.84.55.55,0,0,1-.15.08" transform="translate(-2.57 -2.71)"/>
  <path class="cls-2" d="M8.46,13.23a4.39,4.39,0,0,1-3.37-3A4.28,4.28,0,0,1,5,8.13,4.37,4.37,0,0,1,6.73,5.41a.63.63,0,0,1,.86.14.61.61,0,0,1-.14.85,3.17,3.17,0,0,0-1.27,2,3.22,3.22,0,0,0,.08,1.51,3.18,3.18,0,0,0,4.39,1.92.63.63,0,0,1,.82.29.61.61,0,0,1-.3.81,4.35,4.35,0,0,1-2.71.34" transform="translate(-2.57 -2.71)"/>
  <path class="cls-3" d="M8.49,9.57A.58.58,0,0,1,7.9,9a.65.65,0,0,1,.62-.65,1.63,1.63,0,0,0,1.07-.48A1.61,1.61,0,0,0,10,6.75a1.39,1.39,0,0,0-.31-.92A.63.63,0,0,1,9.83,5a.69.69,0,0,1,.41-.15.61.61,0,0,1,.47.23,2.63,2.63,0,0,1,.57,1.68,2.83,2.83,0,0,1-.53,1.63,2.45,2.45,0,0,1-.29.35,2.85,2.85,0,0,1-1.94.88h0" transform="translate(-2.57 -2.71)"/>
</svg>

