<svg xmlns="http://www.w3.org/2000/svg" viewBox="0 0 85.5 84.8">
  <style type="text/css">
    .env-logo-layer1 {
      fill: #7C7A7A;
      animation: cycle1 2s linear infinite;
    }

    .env-logo-layer2 {
      fill: #1781A8;
      animation: cycle2 2s linear infinite;
    }

    .env-logo-layer3 {
      fill: #9CCC4D;
      animation: cycle3 2s linear infinite;
    }

    @keyframes cycle1 {
      0%, 65% {
        fill: #7c7a7a;
      }
      75%, 82% {
        fill: #e4e4e4;
      }
      92%, 100% {
        fill: #7c7a7a;
      }
    }

    @keyframes cycle2 {
      0%, 40% {
        fill: #1781a8;
      }
      50%, 86% {
        fill: #c6eaf7;
      }
      96%, 100% {
        fill: #1781a8;
      }
    }

    @keyframes cycle3 {
      0%, 15% {
        fill: #9ccc4d;
      }
      25%, 90% {
        fill: #ebf4db;
      }
      100% {
        fill: #9ccc4d;
      }
    }
  </style>
  <path class="env-logo-layer1" d="M26,65.3c-1.5,0.5-3.1-0.1-4.1-1.4c-1.9-2.7-3.3-5.7-4.3-8.8C11.9,37.2,21.9,18.1,40,12.4
    c3-0.9,6-1.5,9.1-1.6c2-0.1,3.6,1.5,3.7,3.4c0.1,2-1.5,3.6-3.4,3.7c-2.4,0.1-4.9,0.5-7.2,1.3C27.9,23.6,19.9,38.8,24.5,53
    c0.8,2.5,1.9,4.8,3.4,7c1.1,1.6,0.7,3.8-1,4.9C26.6,65.1,26.3,65.2,26,65.3"/>
  <path class="env-logo-layer2" d="M50.5,72.3c-9.4-1.8-16.9-8.5-19.7-17.6c-1.2-3.9-1.4-8.2-0.7-12.3c1.3-6.4,4.9-12,10.2-15.9
    c1.6-1.1,3.9-0.8,5,0.8c1.2,1.6,0.8,3.8-0.8,5c-3.9,2.7-6.5,6.8-7.4,11.4c-0.6,2.9-0.4,6,0.5,8.8c2,6.5,7.5,11.4,14.2,12.7
    c3.9,0.7,7.8,0.3,11.4-1.4c1.8-0.8,3.9-0.1,4.8,1.7c0.8,1.8,0.1,3.9-1.7,4.7C61.3,72.6,55.9,73.3,50.5,72.3"/>
  <path class="env-logo-layer3" d="M50.6,50.9c-0.9,0-1.8-0.4-2.5-1c-0.7-0.7-1-1.6-1-2.5c0-2,1.6-3.7,3.6-3.8
    c2.3-0.1,4.6-1.1,6.2-2.8c1.7-1.7,2.6-4,2.6-6.4c0-2-0.6-3.8-1.8-5.3c-1.2-1.5-0.9-3.9,0.6-5.2c0.7-0.5,1.5-0.9,2.4-0.9
    c1.1,0,2.1,0.5,2.7,1.3c2.2,2.8,3.4,6.2,3.3,9.8c0,3.4-1.1,6.7-3.1,9.5c-0.5,0.7-1.1,1.4-1.7,2c-3,3.2-7.1,5-11.4,5.2
    C50.8,50.9,50.6,50.9,50.6,50.9"/>
</svg>

