<svg xmlns="http://www.w3.org/2000/svg" viewBox="0 0 24 24" fill="currentColor"><path fill="currentColor" d="M 12 0.375 C 5.578125 0.375 0.375 5.578125 0.375 12 S 5.578125 23.625 12 23.625 S 23.625 18.421875 23.625 12 S 18.421875 0.375 12 0.375 Z M 12 21.375 C 6.820313 21.375 2.625 17.179688 2.625 12 S 6.820313 2.625 12 2.625 S 21.375 6.820313 21.375 12 S 17.179688 21.375 12 21.375 Z M 14.896875 16.48125 L 10.917188 13.589063 C 10.771875 13.48125 10.6875 13.3125 10.6875 13.134375 V 5.4375 C 10.6875 5.128125 10.940625 4.875 11.25 4.875 H 12.75 C 13.059375 4.875 13.3125 5.128125 13.3125 5.4375 V 12.079687 L 16.44375 14.357813 C 16.696875 14.540625 16.748438 14.892187 16.565625 15.145313 L 15.684375 16.359375 C 15.501563 16.607813 15.15 16.664063 14.896875 16.48125 Z"></path></svg>