<svg xmlns="http://www.w3.org/2000/svg" viewBox="0 0 24 24" fill="currentColor"><path fill="currentColor" d="M 22.626375 14.028563 L 21.097781 13.146047 A 9.1485 9.1485 0 0 0 21.097781 10.853906 L 22.626375 9.971391 C 23.07525 9.712266 23.291766 9.179109 23.144156 8.682281 C 22.6185 6.912797 21.682828 5.320031 20.447203 4.013766 C 20.089359 3.635484 19.518281 3.552703 19.067344 3.813047 L 17.541 4.694203 A 9.099609 9.099609 0 0 0 15.556359 3.546703 V 1.783547 C 15.556359 1.261828 15.197672 0.808359 14.689922 0.688219 C 12.925359 0.270609 11.075016 0.270562 9.310078 0.688219 C 8.802375 0.808359 8.443641 1.261781 8.443641 1.783547 V 3.546703 A 9.098484 9.098484 0 0 0 6.459 4.694203 L 4.932656 3.813047 C 4.481672 3.552703 3.910594 3.635484 3.552797 4.013766 C 2.317172 5.320031 1.3815 6.912844 0.855844 8.682281 C 0.708234 9.179109 0.92475 9.712219 1.373625 9.971391 L 2.902219 10.853906 A 9.1485 9.1485 0 0 0 2.902219 13.146047 L 1.373625 14.028562 C 0.92475 14.287687 0.708234 14.820844 0.855844 15.317672 C 1.3815 17.087109 2.317172 18.679922 3.552797 19.986188 C 3.910641 20.364469 4.481719 20.44725 4.932656 20.186953 L 6.459 19.305797 A 9.0975 9.0975 0 0 0 8.443641 20.45325 V 22.216406 C 8.443641 22.738125 8.802328 23.191594 9.310078 23.311734 C 11.074688 23.729344 12.924984 23.729391 14.689922 23.311734 C 15.197625 23.191594 15.556359 22.738172 15.556359 22.216406 V 20.45325 A 9.100219 9.100219 0 0 0 17.541 19.305797 L 19.067344 20.186953 C 19.518281 20.447297 20.089359 20.364516 20.447203 19.986188 C 21.682828 18.679922 22.6185 17.087109 23.144156 15.317672 C 23.291766 14.820844 23.07525 14.287734 22.626375 14.028562 Z M 19.557047 18.737672 L 17.386313 17.484234 C 16.12125 18.565688 15.672609 18.837797 14.056359 19.408875 V 21.915703 A 10.178672 10.178672 0 0 0 9.943641 21.915703 V 19.408875 C 8.367656 18.852047 7.911375 18.593484 6.613688 17.484234 L 4.442953 18.737672 C 3.519047 17.702203 2.816906 16.488188 2.383781 15.177141 L 4.555453 13.923703 C 4.249125 12.263531 4.248984 11.737266 4.555453 10.07625 L 2.383781 8.822813 C 2.816906 7.511766 3.519094 6.297703 4.442953 5.261766 L 6.613688 6.516141 C 7.896984 5.417672 8.351016 5.153719 9.943641 4.591031 V 2.08425 A 10.162031 10.162031 0 0 0 14.056359 2.08425 V 4.591078 C 15.649078 5.153813 16.103156 5.417813 17.386313 6.516188 L 19.557047 5.261813 C 20.480906 6.297703 21.183094 7.511766 21.616219 8.822859 L 19.444547 10.076297 C 19.750922 11.736891 19.751016 12.262734 19.444547 13.92375 L 21.616219 15.177188 C 21.183094 16.488188 20.480953 17.70225 19.557047 18.737672 Z M 12 7.5 C 9.518672 7.5 7.5 9.518672 7.5 12 S 9.518672 16.5 12 16.5 S 16.5 14.481328 16.5 12 S 14.481328 7.5 12 7.5 Z M 12 15 C 10.345781 15 9 13.654219 9 12 S 10.345781 9 12 9 S 15 10.345781 15 12 S 13.654219 15 12 15 Z"></path></svg>