<svg xmlns="http://www.w3.org/2000/svg" viewBox="0 0 24 24" fill="currentColor">
  <path fill="currentColor" d="M 5.837333 21.034667 A 1.381333 1.381333 0 0 1 4.282667 20.496 A 12.888 12.888 0 0 1 2.632 17.130667 C 0.437333 10.288 4.28 2.949333 11.205333 0.773333 A 13.314667 13.314667 0 0 1 14.698667 0.170667 A 1.36 1.36 0 1 1 14.802667 2.890667 A 10.306667 10.306667 0 0 0 5.896 8.490667 A 10.277333 10.277333 0 0 0 6.56 18.976 A 1.344 1.344 0 0 1 5.837333 21.032 M 15.210667 23.696 A 9.794667 9.794667 0 0 1 7.664 16.976 A 9.672 9.672 0 0 1 11.341333 6.213333 A 1.386667 1.386667 0 0 1 13.253333 6.522667 A 1.352 1.352 0 0 1 12.938667 8.421333 A 6.992 6.992 0 0 0 10.285333 16.178667 A 7.128 7.128 0 0 0 20.109333 20.48 A 1.386667 1.386667 0 0 1 21.941333 21.133333 A 1.354667 1.354667 0 0 1 21.288 22.944 A 9.906667 9.906667 0 0 1 15.210667 23.696 Z M 15.288 15.514667 A 1.336 1.336 0 0 1 13.944 14.16 A 1.466667 1.466667 0 0 1 15.341333 12.714667 A 3.568 3.568 0 0 0 18.733333 9.2 C 18.746667 8.453333 18.501333 7.730667 18.04 7.146667 A 1.418667 1.418667 0 0 1 18.285333 5.173333 A 1.450667 1.450667 0 0 1 19.194667 4.853333 A 1.322667 1.322667 0 0 1 20.242667 5.357333 A 5.92 5.92 0 0 1 21.528 9.109333 A 6.381333 6.381333 0 0 1 19.693333 13.546667 A 6.373333 6.373333 0 0 1 15.344 15.52 H 15.290667"></path>
</svg>
