<svg xmlns="http://www.w3.org/2000/svg" viewBox="0 0 24 24" fill="currentColor"><path fill="currentColor" d="M 12 0.375 C 5.580141 0.375 0.375 5.582016 0.375 12 C 0.375 18.421734 5.580141 23.625 12 23.625 S 23.625 18.421734 23.625 12 C 23.625 5.582016 18.419859 0.375 12 0.375 Z M 12 21.375 C 6.818813 21.375 2.625 17.182922 2.625 12 C 2.625 6.820547 6.819 2.625 12 2.625 C 17.179266 2.625 21.375 6.818953 21.375 12 C 21.375 17.181094 17.182922 21.375 12 21.375 Z M 12 5.53125 C 13.087313 5.53125 13.96875 6.412688 13.96875 7.5 S 13.087313 9.46875 12 9.46875 S 10.03125 8.587313 10.03125 7.5 S 10.912688 5.53125 12 5.53125 Z M 14.625 17.4375 C 14.625 17.748141 14.373141 18 14.0625 18 H 9.9375 C 9.626859 18 9.375 17.748141 9.375 17.4375 V 16.3125 C 9.375 16.001859 9.626859 15.75 9.9375 15.75 H 10.5 V 12.75 H 9.9375 C 9.626859 12.75 9.375 12.498141 9.375 12.1875 V 11.0625 C 9.375 10.751859 9.626859 10.5 9.9375 10.5 H 12.9375 C 13.248141 10.5 13.5 10.751859 13.5 11.0625 V 15.75 H 14.0625 C 14.373141 15.75 14.625 16.001859 14.625 16.3125 V 17.4375 Z"></path></svg>