<svg aria-hidden="true" focusable="false" data-prefix="fae" class="svg-inline--fa fa-org-assessment fa-w-16 env-a-font-size-22" role="img" xmlns="http://www.w3.org/2000/svg" viewBox="0 0 89 91"><path fill="currentColor" d="M4.55 12.72a8.58 8.58 0 1 1 17.17 0 8.58 8.58 0 0 1-17.17 0ZM13.13.37a12.35 12.35 0 1 0 0 24.7 12.35 12.35 0 0 0 0-24.7ZM4.55 45.61a8.58 8.58 0 1 0 17.17 0 8.58 8.58 0 0 0-17.17 0Zm8.58-12.35a12.35 12.35 0 1 1 0 24.7 12.35 12.35 0 0 1 0-24.7ZM4.55 78.5a8.58 8.58 0 1 0 17.17 0 8.58 8.58 0 0 0-17.17 0Zm8.58-12.34a12.35 12.35 0 1 1 0 24.7 12.35 12.35 0 0 1 0-24.7Zm22.79-53.44a8.58 8.58 0 1 0 17.17 0 8.58 8.58 0 0 0-17.17 0ZM44.5.37a12.35 12.35 0 1 1 0 24.7 12.35 12.35 0 0 1 0-24.7Zm-8.58 45.24a8.58 8.58 0 1 1 17.17 0 8.58 8.58 0 0 1-17.17 0Zm8.58-12.35a12.35 12.35 0 1 0 0 24.7 12.35 12.35 0 0 0 0-24.7Zm22.78-20.54a8.58 8.58 0 1 0 17.17 0 8.58 8.58 0 0 0-17.17 0ZM75.86.37a12.35 12.35 0 1 1 0 24.7 12.35 12.35 0 0 1 0-24.7ZM57.3 89.63c-.72 0-1.27-.25-2-.85L42.92 78.12c-1.48-1.2-1.55-3.28-.7-4.28 1.25-1.5 2.84-1.42 4.27-.7l10.24 9.22 25.9-28.44c.71-1.43 2.85-1.43 4.28 0 .87.88 1.42 2.85 0 4.28L59.58 88.78c-.94.85-1.58.85-2.29.85Z"></path></svg>