<svg xmlns="http://www.w3.org/2000/svg" viewBox="0 0 24 24" fill="currentColor"><path fill="currentColor" d="M 18 11.71875 V 12.28125 C 18 12.590625 17.746875 12.84375 17.4375 12.84375 H 12.84375 V 17.4375 C 12.84375 17.746875 12.590625 18 12.28125 18 H 11.71875 C 11.409375 18 11.15625 17.746875 11.15625 17.4375 V 12.84375 H 6.5625 C 6.253125 12.84375 6 12.590625 6 12.28125 V 11.71875 C 6 11.409375 6.253125 11.15625 6.5625 11.15625 H 11.15625 V 6.5625 C 11.15625 6.253125 11.409375 6 11.71875 6 H 12.28125 C 12.590625 6 12.84375 6.253125 12.84375 6.5625 V 11.15625 H 17.4375 C 17.746875 11.15625 18 11.409375 18 11.71875 Z M 23.625 12 C 23.625 18.421875 18.421875 23.625 12 23.625 S 0.375 18.421875 0.375 12 S 5.578125 0.375 12 0.375 S 23.625 5.578125 23.625 12 Z M 22.125 12 C 22.125 6.379687 17.564063 1.875 12 1.875 C 6.379687 1.875 1.875 6.435938 1.875 12 C 1.875 17.620312 6.435938 22.125 12 22.125 C 17.620312 22.125 22.125 17.564063 22.125 12 Z"></path></svg>