<svg aria-hidden="true" focusable="false" data-prefix="fae" class="svg-inline--fa fa-polco fa-w-17 env-a-font-size-22" role="img" xmlns="http://www.w3.org/2000/svg" viewBox="0 0 88 85"><path fill="currentColor" d="M94.216 53.144v-11.04c-8.01-.03-18.41 2.2-27 10.09-3.5 3.22-16.61 16.76-16.61 16.76l16.64 16.67 16.7-16.73-8.84-8.81c6.3-5.24 13.4-6.92 19.11-6.94ZM.696 42.104v11.04c8.01.03 18.41-2.2 27-10.09 3.5-3.22 16.61-16.76 16.61-16.76l-16.65-16.68-16.7 16.73 8.84 8.81c-6.3 5.25-13.39 6.92-19.1 6.95ZM52.976.864h-11.04c-.03 8.01 2.2 18.41 10.09 27 3.22 3.5 16.77 16.61 16.77 16.61l16.67-16.64-16.73-16.7-8.81 8.84c-5.25-6.31-6.93-13.4-6.95-19.11Zm-11.04 93.52h11.04c.03-8.01-2.2-18.41-10.09-27-3.22-3.5-16.76-16.61-16.76-16.61l-16.68 16.65 16.73 16.7 8.81-8.84c5.25 6.29 6.93 13.39 6.95 19.1Z"></path></svg>