<svg xmlns="http://www.w3.org/2000/svg" viewBox="0 0 24 24" fill="currentColor"><path fill="currentColor" d="M 23.835938 22.575 L 17.789063 16.528125 C 17.68125 16.420313 17.540625 16.364063 17.390625 16.364063 H 16.907813 C 18.515625 14.625 19.5 12.304688 19.5 9.75 C 19.5 4.364062 15.135937 0 9.75 0 S 0 4.364062 0 9.75 S 4.364062 19.5 9.75 19.5 C 12.304688 19.5 14.625 18.515625 16.364063 16.9125 V 17.390625 C 16.364063 17.540625 16.425 17.68125 16.528125 17.789063 L 22.575 23.835938 C 22.795313 24.05625 23.151563 24.05625 23.371875 23.835938 L 23.835938 23.371875 C 24.05625 23.151563 24.05625 22.795313 23.835938 22.575 Z M 9.75 18 C 5.189063 18 1.5 14.310938 1.5 9.75 S 5.189063 1.5 9.75 1.5 S 18 5.189063 18 9.75 S 14.310938 18 9.75 18 Z"></path></svg>