<svg xmlns="http://www.w3.org/2000/svg" viewBox="0 0 24 24" fill="currentColor"><path fill="currentColor" d="M 18 12 C 19.9875 12 21.6 10.3875 21.6 8.4 S 19.9875 4.8 18 4.8 S 14.4 6.4125 14.4 8.4 S 16.0125 12 18 12 Z M 18 6.6 C 18.99375 6.6 19.8 7.40625 19.8 8.4 S 18.99375 10.2 18 10.2 S 16.2 9.39375 16.2 8.4 S 17.00625 6.6 18 6.6 Z M 10.20375 12.75 C 9.7575 12.75 9.3075 12.81375 8.8725 12.94875 C 8.34 13.11 7.78125 13.2 7.19625 13.2 S 6.0525 13.11 5.52 12.94875 C 5.085 12.8175 4.635 12.75 4.18875 12.75 C 2.8275 12.75 1.50375 13.3575 0.7275 14.50875 C 0.27 15.19875 0 16.0275 0 16.92 V 18.6 C 0 19.59375 0.80625 20.4 1.8 20.4 H 12.6 C 13.59375 20.4 14.4 19.59375 14.4 18.6 V 16.92 C 14.4 16.0275 14.13 15.19875 13.665 14.50875 C 12.88875 13.3575 11.565 12.75 10.20375 12.75 Z M 12.6 18.6 H 1.8 V 16.92 C 1.8 15.83625 2.49 14.91 3.45375 14.55375 C 3.84 14.41125 4.26375 14.415 4.65 14.55375 C 5.47875 14.85 6.3375 15 7.2 15 S 8.9175 14.85 9.75375 14.55375 C 10.14 14.415 10.56375 14.41125 10.95 14.55375 C 11.91375 14.90625 12.60375 15.83625 12.60375 16.92 V 18.6 Z M 7.2 12 C 9.52125 12 11.4 10.12125 11.4 7.8 S 9.52125 3.6 7.2 3.6 S 3 5.47875 3 7.8 S 4.87875 12 7.2 12 Z M 7.2 5.4 C 8.52375 5.4 9.6 6.47625 9.6 7.8 S 8.52375 10.2 7.2 10.2 S 4.8 9.12375 4.8 7.8 S 5.87625 5.4 7.2 5.4 Z M 23.38875 14.29125 C 22.74 13.33125 21.6375 12.825 20.505 12.825 C 19.4625 12.825 19.2 13.2 18 13.2 S 16.5375 12.825 15.495 12.825 C 14.99625 12.825 14.5125 12.9375 14.0625 13.12875 C 14.28 13.35 14.48625 13.57875 14.6625 13.8375 C 14.83875 14.1 14.985 14.3775 15.1125 14.6625 C 15.23625 14.63625 15.36375 14.62125 15.495 14.62125 C 16.14 14.62125 16.605 14.99625 18 14.99625 C 19.4025 14.99625 19.85625 14.62125 20.505 14.62125 C 21.09375 14.62125 21.61125 14.8725 21.89625 15.2925 C 22.095 15.58875 22.2 15.93375 22.2 16.29375 V 17.4 H 15.6 V 18.6 C 15.6 18.80625 15.5775 19.005 15.54 19.2 H 22.5 C 23.32875 19.2 24 18.52875 24 17.7 V 16.30125 C 24 15.555 23.775 14.865 23.38875 14.29125 Z"></path></svg>