<svg xmlns="http://www.w3.org/2000/svg" viewBox="0 0 93 31">
  <path fill="#7B7979" d="M7.405,24.524c-0.598,0.188-1.275-0.026-1.645-0.567c-0.751-1.096-1.338-2.297-1.746-3.571
	C1.687,13.125,5.757,5.344,13.09,3.039c1.202-0.378,2.447-0.594,3.698-0.641c0.804-0.031,1.478,0.59,1.51,1.386
	c0.031,0.795-0.597,1.464-1.4,1.496c-0.988,0.036-1.976,0.206-2.929,0.507C8.167,7.611,4.948,13.77,6.789,19.514
	c0.324,1.01,0.79,1.962,1.382,2.829c0.451,0.658,0.276,1.554-0.39,2C7.663,24.422,7.536,24.482,7.405,24.524"/>
  <path fill="#1080A8" d="M17.34,27.344c-3.801-0.726-6.866-3.457-8-7.125c-0.498-1.603-0.588-3.323-0.267-4.977
	c0.511-2.603,1.987-4.889,4.16-6.434c0.655-0.464,1.563-0.316,2.033,0.33c0.467,0.648,0.318,1.547-0.335,2.013
	c-1.566,1.114-2.631,2.761-2.995,4.638c-0.234,1.193-0.169,2.434,0.187,3.586c0.82,2.646,3.03,4.614,5.77,5.139
	c1.581,0.303,3.184,0.103,4.632-0.576c0.726-0.34,1.594-0.032,1.94,0.688c0.341,0.719,0.031,1.579-0.697,1.92
	C21.755,27.486,19.532,27.762,17.34,27.344"/>
  <path fill="#99D648" d="M17.412,18.669c-0.383,0-0.74-0.146-1.007-0.414c-0.268-0.27-0.415-0.633-0.413-1.022
	c0.005-0.814,0.667-1.502,1.478-1.533c0.953-0.037,1.851-0.444,2.532-1.149c0.679-0.706,1.058-1.623,1.061-2.581
	c0.006-0.804-0.249-1.556-0.734-2.17c-0.5-0.626-0.382-1.565,0.26-2.093c0.275-0.223,0.618-0.348,0.962-0.348
	c0.438,0,0.845,0.195,1.111,0.534c0.897,1.125,1.366,2.501,1.359,3.978c-0.011,1.392-0.441,2.732-1.25,3.875
	c-0.214,0.3-0.444,0.579-0.688,0.83c-1.236,1.284-2.874,2.027-4.614,2.094C17.468,18.669,17.414,18.669,17.412,18.669"/>
  <path fill="#231F20" d="M31.853,12.011c0-0.649,0.493-1.011,1.021-1.011H36c0.643,0,1.023,0.375,1.023,0.937
	c0,0.587-0.38,0.936-1.023,0.936h-2.104v1.61h1.929c0.643,0,1.02,0.362,1.02,0.936c0,0.574-0.377,0.937-1.02,0.937h-1.929v1.662
	h2.179c0.644,0,1.023,0.349,1.023,0.937c0,0.562-0.379,0.936-1.023,0.936h-3.202c-0.527,0-1.021-0.362-1.021-1.012V12.011"/>
  <path fill="#231F20" d="M40.211,11.999c0-0.712,0.428-1.074,1.021-1.074c0.542,0,0.731,0.238,1.412,1.086l3.393,4.207
	h0.023v-4.219c0-0.712,0.428-1.074,1.02-1.074c0.596,0,1.021,0.362,1.021,1.074v6.888c0,0.714-0.426,1.076-1.021,1.076
	c-0.539,0-0.742-0.237-1.41-1.087l-3.392-4.207h-0.025v4.217c0,0.714-0.428,1.076-1.021,1.076c-0.593,0-1.021-0.362-1.021-1.076
	V11.999"/>
  <path fill="#231F20" d="M56.475,11.835c0.189-0.46,0.365-0.911,1.135-0.911c0.592,0,0.996,0.474,0.996,0.986
	c0,0.188-0.152,0.586-0.215,0.736l-2.547,6.24c-0.201,0.5-0.377,1.076-1.135,1.076c-0.757,0-0.934-0.576-1.135-1.076l-2.496-6.24
	c-0.062-0.15-0.216-0.548-0.216-0.736c0-0.513,0.405-0.986,0.995-0.986c0.771,0,0.948,0.45,1.138,0.911l1.738,4.544L56.475,11.835"
	/>
  <path fill="#231F20" d="M63.408,18.887c0,0.714-0.43,1.076-1.021,1.076c-0.594,0-1.021-0.362-1.021-1.076v-6.888
	c0-0.712,0.427-1.074,1.021-1.074c0.592,0,1.021,0.362,1.021,1.074V18.887"/>
  <path fill="#231F20" d="M67.441,17.552c0.504,0,1.159,0.514,2.205,0.514c0.795,0,1.085-0.398,1.085-0.837
	c0-0.675-0.782-0.811-1.942-1.186c-1.06-0.337-2.154-0.787-2.154-2.397c0-1.935,1.523-2.846,3.227-2.846
	c1.64,0,2.545,0.562,2.545,1.335c0,0.548-0.363,0.949-0.905,0.949c-0.657,0-0.872-0.338-1.74-0.338
	c-0.554,0-0.934,0.287-0.934,0.726c0,0.512,0.505,0.575,1.916,1.035c1.108,0.362,2.183,0.923,2.183,2.609
	c0,2.049-1.527,2.971-3.43,2.971c-1.198,0-3.014-0.462-3.014-1.46C66.482,18.079,66.822,17.552,67.441,17.552"/>
  <path fill="#231F20" d="M78.244,18.887c0,0.714-0.428,1.076-1.021,1.076c-0.594,0-1.022-0.362-1.022-1.076v-6.888
	c0-0.712,0.429-1.074,1.022-1.074c0.593,0,1.021,0.362,1.021,1.074V18.887"/>
  <path fill="#231F20" d="M83.715,15.443c0,1.411,0.643,2.773,2.219,2.773s2.219-1.362,2.219-2.773
	c0-1.409-0.643-2.77-2.219-2.77S83.715,14.034,83.715,15.443z M90.348,15.443c0,2.823-1.754,4.645-4.414,4.645
	s-4.411-1.822-4.411-4.645c0-2.819,1.751-4.643,4.411-4.643S90.348,12.624,90.348,15.443"/>
</svg>

