<svg aria-hidden="true" focusable="false" data-prefix="fae" class="svg-inline--fa fa-plan fa-w-16 env-a-font-size-22" role="img" xmlns="http://www.w3.org/2000/svg" viewBox="0 0 90 90"><path fill="currentColor" d="M85.9677 63.4832L65.6707 53.4428L59.701 56.2541L78.804 65.4912L43.7817 82.359L8.75947 65.4912L27.8625 56.2541L21.8928 53.4428L1.59583 63.4832C0.799867 63.8848 0.00390625 64.688 0.00390625 65.8928C0.00390625 67.0977 0.799867 67.9009 1.59583 68.3025L42.5878 87.9817C42.9858 87.9817 43.3838 88.3833 43.7817 88.3833C44.1797 88.3833 44.5777 88.3833 44.9757 87.9817L85.9677 68.3025C86.7636 67.9009 87.5596 67.0977 87.5596 65.8928C87.5596 64.688 87.1616 63.8848 85.9677 63.4832ZM79.9987 38.18L63.6815 29.7461L57.7118 32.5574L72.8351 40.188L56.5179 48.2203L50.5482 51.0317L43.7825 54.2446L37.0168 51.0317L31.0471 48.2203L14.7299 40.5897L30.6492 32.959L24.6795 30.1477L7.56629 38.5816C6.77033 38.9832 5.97437 39.7864 5.97437 40.9913C5.97437 42.1961 6.77033 42.9994 7.56629 43.401L25.0774 51.8349L31.0471 54.6462L42.5886 60.2688C42.9865 60.2688 43.3845 60.6704 43.7825 60.6704C44.1805 60.6704 44.5785 60.6704 44.9764 60.2688L56.5179 54.6462L62.8856 51.4333L79.9987 43.401C80.7947 42.9994 81.5906 42.1961 81.5906 40.9913C81.5906 39.7864 80.7947 38.9832 79.9987 38.18ZM76.4149 15.6903L44.9744 0.0273438C44.1784 0.0273438 43.3825 0.0273438 42.5865 0.428959L11.5441 15.6903C10.3501 16.0919 9.95214 17.2968 9.95214 18.1C9.95214 19.3049 10.3501 20.1081 11.5441 20.5097L27.4633 28.542L33.433 31.3533L42.1885 35.7711C42.5865 35.7711 42.9845 36.1727 43.3825 36.1727C43.7805 36.1727 44.1785 36.1727 44.5764 35.7711L53.332 31.7549L59.3017 28.9436L75.6189 21.3129C76.4149 20.9113 77.2108 20.1081 77.2108 18.9032C77.6088 17.2968 77.2108 16.0919 76.4149 15.6903ZM53.73 25.3291L47.7603 28.1404L43.7805 30.1485L39.8007 28.1404L33.831 25.3291L18.7077 18.1L43.7805 5.64995L68.8532 18.1L53.73 25.3291Z"></path></svg>